<svg viewBox="0 0 73 22" version="1.1" xmlns="http://www.w3.org/2000/svg" xmlns:xlink="http://www.w3.org/1999/xlink" xml:space="preserve" style="fill-rule:evenodd;clip-rule:evenodd;stroke-linejoin:round;stroke-miterlimit:2;">
    <g transform="matrix(1,0,0,1,-315.508,-437.509)">
        <g transform="matrix(0.680894,0,0,0.680894,342.016,440.4)">
            <path d="M0,22.292C-4.338,22.292 -6.953,20.031 -6.953,16.235L-6.953,15.087L-1.977,15.087L-1.977,16.107C-1.977,17.127 -1.338,17.861 -0.254,17.861C0.829,17.861 1.341,17.256 1.341,16.139C1.341,14.829 -0.221,13.905 -1.977,12.789C-4.242,11.387 -6.793,9.663 -6.793,6.539C-6.793,3.221 -4.433,0 0.16,0C3.924,0 6.507,2.71 6.507,6.028L6.507,6.921L1.53,6.921L1.53,5.933C1.53,5.005 0.926,4.434 0.16,4.434C-0.574,4.434 -1.338,4.944 -1.338,5.965C-1.338,7.269 0.225,8.166 1.978,9.283C4.241,10.717 6.826,12.472 6.826,15.725C6.826,19.072 4.402,22.292 0,22.292" style="fill-rule:nonzero;"/>
        </g>
        <g transform="matrix(0.680894,0,0,0.680894,108.242,213.899)">
            <rect x="351.828" y="333.163" width="5.711" height="21.24"/>
        </g>
        <g transform="matrix(0.680894,0,0,0.680894,362.971,440.747)">
            <path d="M0,21.24L0,7.877L-1.051,13.299L-2.774,21.24L-6.283,21.24L-7.878,13.299L-8.836,7.877L-8.836,21.24L-13.938,21.24L-13.938,0L-6.441,0L-4.719,8.323L-4.177,11.511L-3.604,8.323L-1.945,0L5.52,0L5.52,21.24L0,21.24Z" style="fill-rule:nonzero;"/>
        </g>
        <g transform="matrix(0.680894,0,0,0.680894,374.082,446.002)">
            <path d="M0,5.806C0,5.073 -0.381,4.754 -0.987,4.754L-2.392,4.754L-2.392,9.249L-0.987,9.249C-0.381,9.249 0,8.963 0,8.196L0,5.806ZM0,-2.359C0,-3.127 -0.381,-3.411 -0.987,-3.411L-2.392,-3.411L-2.392,1.087L-0.987,1.087C-0.381,1.087 0,0.766 0,0.03L0,-2.359ZM0.287,13.523L-8.102,13.523L-8.102,-7.717L0.287,-7.717C3.031,-7.717 5.327,-6.09 5.327,-3.159L5.327,-0.959C5.327,0.574 4.785,2.328 2.553,2.71C4.688,3.252 5.327,4.69 5.327,6.38L5.327,8.963C5.327,11.928 3.031,13.523 0.287,13.523" style="fill-rule:nonzero;"/>
        </g>
        <g transform="matrix(0.680894,0,0,0.680894,383.348,440.4)">
            <path d="M0,22.292C-4.339,22.292 -6.953,20.031 -6.953,16.235L-6.953,15.087L-1.977,15.087L-1.977,16.107C-1.977,17.127 -1.342,17.861 -0.258,17.861C0.826,17.861 1.337,17.256 1.337,16.139C1.337,14.829 -0.226,13.905 -1.977,12.789C-4.242,11.387 -6.793,9.663 -6.793,6.539C-6.793,3.221 -4.436,0 0.16,0C3.924,0 6.506,2.71 6.506,6.028L6.506,6.921L1.529,6.921L1.529,5.933C1.529,5.005 0.923,4.434 0.16,4.434C-0.575,4.434 -1.342,4.944 -1.342,5.965C-1.342,7.269 0.221,8.166 1.976,9.283C4.24,10.717 6.824,12.472 6.824,15.725C6.824,19.072 4.401,22.292 0,22.292" style="fill-rule:nonzero;"/>
        </g>
        <g transform="matrix(1,0,0,1,327.924,449.437)">
            <path d="M0,-2.536L-0.371,-2.423C-0.334,-2.507 -0.405,-2.587 -0.405,-2.587C-0.305,-2.585 0,-2.536 0,-2.536M0.771,-2.327L0.65,-2.335L0.59,-2.432L0.752,-2.411L0.771,-2.327ZM0.625,-2.69L0.525,-2.772C0.525,-2.772 0.219,-2.788 0.209,-2.813C0.199,-2.839 0.154,-2.766 0.154,-2.766L-0.461,-2.856C-0.461,-2.856 -0.508,-2.96 -0.548,-3.009C-0.588,-3.057 -0.609,-3.122 -0.609,-3.177C-0.609,-3.231 -0.643,-3.274 -0.676,-3.325C-0.709,-3.374 -0.689,-3.438 -0.711,-3.489C-0.73,-3.542 -0.803,-3.573 -0.785,-3.602C-0.769,-3.632 -0.746,-3.823 -0.742,-3.899C-0.737,-3.973 -0.73,-4.138 -0.73,-4.138C-0.73,-4.138 -0.689,-4.122 -0.67,-4.124C-0.649,-4.128 -0.561,-4.071 -0.49,-4.052C-0.42,-4.034 -0.25,-3.921 -0.191,-3.888C-0.133,-3.854 0.023,-3.745 0.057,-3.743C0.091,-3.741 0.188,-3.671 0.215,-3.62C0.241,-3.569 0.328,-3.587 0.371,-3.565C0.414,-3.544 0.479,-3.458 0.578,-3.423C0.678,-3.388 0.742,-3.255 0.799,-3.186C0.854,-3.12 0.862,-3.005 0.907,-2.97L0.965,-2.835C0.828,-2.737 0.84,-2.649 0.83,-2.669C0.821,-2.688 0.625,-2.69 0.625,-2.69M-1.961,-0.485L-2.153,0.4C-2.219,0.306 -2.343,0.241 -2.343,0.241L-2.104,-0.806C-1.956,-0.661 -1.961,-0.485 -1.961,-0.485M-1.851,-1.001L-2.042,-1.173L-1.922,-1.776C-1.922,-1.776 -1.799,-1.602 -1.761,-1.575C-1.723,-1.546 -1.715,-1.479 -1.689,-1.333C-1.664,-1.186 -1.63,-0.974 -1.63,-0.974C-1.759,-1.026 -1.851,-1.001 -1.851,-1.001M-1.892,0.86L-1.744,0.314C-1.744,0.314 -1.763,0.595 -1.735,0.698C-1.735,0.698 -1.799,0.734 -1.789,0.868C-1.779,1.003 -1.85,1.241 -1.85,1.241C-1.85,1.241 -1.843,0.923 -1.892,0.86M5.998,-1.571L5.672,-1.554L5.977,-1.747L5.857,-1.997L6.062,-2.186L5.838,-2.274L5.936,-2.47L5.469,-2.323L5.255,-2.202L5.104,-2.294L5.24,-2.528L5.505,-2.62L5.385,-2.821L5.578,-3.065L5.535,-3.22L5.008,-2.757L4.865,-2.901L5.063,-3.167L5.263,-3.235L5.285,-3.421L5.514,-3.647L5.417,-3.848L4.942,-3.475L4.748,-3.386L4.667,-3.554L5.094,-3.872L5.174,-4.128L4.695,-3.907L4.587,-4.061L4.855,-4.12L4.738,-4.347L4.964,-4.466L5.009,-4.688L4.744,-4.622L4.964,-4.983L4.986,-5.13L4.555,-4.964L4.685,-5.249L4.512,-5.304L4.711,-5.716L4.336,-5.53L4.383,-5.927L4.254,-6.186L4.181,-5.704L3.92,-5.856L3.996,-5.472L3.746,-5.309L3.93,-4.952L3.822,-4.809L3.43,-4.929L3.541,-4.489L3.717,-4.382C3.717,-4.382 3.871,-4.225 3.903,-4.212C3.895,-4.175 3.883,-3.991 3.854,-4.003C3.822,-4.016 3.574,-4.128 3.574,-4.128L3.343,-4.169L3.413,-3.895L3.65,-3.702L3.596,-3.505L3.338,-3.552L3.1,-3.554L3.076,-3.288L2.813,-3.128L3.42,-3.102C3.42,-3.102 3.076,-2.86 3.044,-2.874C3.01,-2.888 2.724,-2.714 2.724,-2.714L3.154,-2.688L3.386,-2.794L3.529,-2.661L3.496,-2.554L3.618,-2.446L3.553,-2.341L2.911,-2.46L3.033,-2.3L2.856,-2.274L3.198,-2.02L3.607,-1.847C3.607,-1.847 3.44,-1.727 3.408,-1.741C3.375,-1.753 3.166,-1.766 3.166,-1.766L2.58,-2.327L2.369,-2.282L2.434,-2.081L2.734,-1.913L2.823,-1.78C2.823,-1.78 2.865,-1.571 2.831,-1.557C2.799,-1.544 2.338,-1.634 2.338,-1.634C2.338,-1.634 2.426,-1.54 2.447,-1.474C2.47,-1.407 2.636,-1.352 2.636,-1.352L2.69,-1.161L3.01,-0.979C3.01,-0.979 2.889,-0.847 2.856,-0.847C2.823,-0.847 2.603,-0.806 2.603,-0.806L2.193,-0.966L2.338,-0.727L2.492,-0.673L2.422,-0.466L2.691,-0.311C2.691,-0.311 2.734,-0.151 2.668,-0.138C2.603,-0.126 2.525,-0.151 2.48,-0.179C2.438,-0.206 2.127,-0.38 2.127,-0.38L2.139,-0.179C2.139,-0.179 2.237,0.062 2.281,0.048C2.326,0.034 2.348,0.181 2.281,0.169C2.217,0.155 1.973,0.247 1.973,0.247C1.973,0.247 1.867,0.548 1.889,0.603C1.91,0.655 2.415,0.661 2.415,0.661L2.724,0.81C2.724,0.81 2.69,0.982 2.656,0.982C2.624,0.982 2.304,0.958 2.304,0.958L1.959,1.124L1.969,1.386L2.572,1.659L1.873,1.872L1.743,2.206C1.743,2.206 1.902,2.255 2.076,2.312L1.902,2.405L1.795,2.538L1.809,2.739L2.129,2.632C2.129,2.632 2.31,2.603 2.473,2.566C2.367,2.704 2.119,2.954 2.119,2.954C2.119,2.954 2.228,3.21 2.228,3.251C2.228,3.257 2.252,3.271 2.293,3.288C2.141,3.329 1.945,3.376 1.842,3.388C1.678,3.405 1.569,3.425 1.569,3.569C1.569,3.714 1.479,3.95 1.406,4.005C1.334,4.058 1.373,4.253 1.112,4.208C1.072,4.2 0.965,4.257 0.875,4.312C0.744,4.249 0.603,4.191 0.5,4.187C0.283,4.177 -0.023,3.966 -0.195,4.023C-0.366,4.079 -0.508,4.251 -0.765,4.48C-1.021,4.706 -1.562,4.878 -1.705,4.878C-1.848,4.878 -2.275,4.735 -2.475,4.735C-2.616,4.735 -2.744,4.665 -2.918,4.622C-2.883,4.468 -2.85,4.306 -2.815,4.142L-2.612,4.198L-2.505,4.136L-2.364,3.536C-2.364,3.536 -1.873,3.669 -1.791,3.681C-1.708,3.689 -1.64,3.587 -1.64,3.587C-1.64,3.587 -1.462,3.495 -1.451,3.257C-1.441,3.019 -1.5,2.823 -1.459,2.609C-1.42,2.394 -1.374,2.374 -1.418,2.191C-1.418,2.191 -1.355,1.823 -1.287,1.671C-1.219,1.521 -0.969,0.98 -0.969,0.98C-0.969,0.98 -0.934,0.943 -0.962,0.87C-0.962,0.87 -0.592,0.052 -0.529,-0.307C-0.529,-0.307 -0.487,-0.354 -0.49,-0.421C-0.491,-0.489 -0.486,-0.552 -0.48,-0.62C-0.477,-0.688 -0.479,-0.768 -0.482,-0.843C-0.484,-0.917 -0.432,-1.032 -0.434,-1.106C-0.437,-1.181 -0.415,-1.325 -0.41,-1.393C-0.404,-1.462 -0.357,-1.569 -0.363,-1.657C-0.367,-1.745 -0.374,-2.124 -0.374,-2.124L-0.077,-2.188C-0.077,-2.188 0.029,-1.936 0.147,-1.966C0.266,-1.995 0.406,-2.067 0.406,-2.067L0.674,-2.141L0.798,-2.177L1.007,-2.13C1.007,-2.13 1.037,-2.005 1.099,-1.991C1.162,-1.979 1.22,-2.001 1.217,-2.182C1.217,-2.182 1.275,-2.204 1.326,-2.182C1.376,-2.163 1.437,-2.151 1.479,-2.155C1.519,-2.161 1.586,-2.155 1.639,-2.177C1.689,-2.196 1.734,-2.216 1.752,-2.245C1.768,-2.274 1.84,-2.405 1.849,-2.493C1.857,-2.583 1.859,-2.671 1.827,-2.768C1.795,-2.866 1.761,-2.917 1.729,-2.96C1.695,-3.003 1.719,-3.032 1.693,-3.069C1.668,-3.108 1.566,-3.278 1.527,-3.368C1.488,-3.458 1.16,-3.911 1.032,-4.063C0.904,-4.216 0.758,-4.407 0.62,-4.485C0.48,-4.563 0.319,-4.718 0.225,-4.766C0.131,-4.815 0.041,-4.825 -0.008,-4.886C-0.056,-4.948 -0.076,-4.952 -0.16,-4.975C-0.245,-4.999 -0.312,-4.942 -0.375,-5.009C-0.437,-5.075 -0.636,-5.247 -0.705,-5.311C-0.774,-5.378 -0.803,-5.395 -0.832,-5.466C-0.861,-5.536 -0.874,-5.575 -0.949,-5.641C-1.025,-5.704 -1.039,-5.757 -1.123,-5.835C-1.208,-5.913 -1.266,-5.886 -1.311,-5.921C-1.311,-5.921 -1.236,-6.229 -1.273,-6.462C-1.309,-6.694 -1.424,-6.911 -1.552,-7.057C-1.679,-7.204 -1.816,-7.274 -1.906,-7.323C-2.117,-7.434 -2.492,-7.411 -2.692,-7.309C-2.851,-7.227 -3.008,-7.065 -3.104,-6.956C-3.158,-6.897 -3.247,-6.757 -3.297,-6.622C-3.323,-6.528 -3.387,-6.255 -3.327,-6.044C-3.327,-6.044 -3.441,-6.05 -3.5,-6.028C-3.54,-6.016 -3.62,-6.013 -3.653,-6.003C-3.688,-5.991 -3.742,-5.942 -3.771,-5.929C-3.803,-5.917 -3.904,-5.917 -3.93,-5.845C-3.948,-5.79 -3.951,-5.753 -4.012,-5.745C-4.072,-5.737 -4.148,-5.755 -4.195,-5.702C-4.243,-5.649 -4.285,-5.608 -4.365,-5.599C-4.445,-5.589 -4.435,-5.556 -4.504,-5.561C-4.57,-5.565 -4.549,-5.548 -4.604,-5.501C-4.658,-5.454 -4.712,-5.501 -4.771,-5.432C-4.83,-5.364 -4.852,-5.374 -5.015,-5.327C-5.179,-5.278 -5.328,-5.225 -5.417,-5.128C-5.506,-5.026 -5.538,-4.962 -5.571,-4.905C-5.604,-4.845 -5.588,-4.772 -5.57,-4.686C-5.553,-4.6 -5.455,-4.573 -5.486,-4.501C-5.518,-4.431 -5.587,-4.393 -5.637,-4.306C-5.687,-4.218 -5.689,-4.138 -5.701,-4.007C-5.711,-3.876 -5.682,-3.745 -5.619,-3.739C-5.559,-3.733 -5.512,-3.692 -5.457,-3.686C-5.401,-3.679 -5.373,-3.608 -5.324,-3.6C-5.275,-3.593 -5.217,-3.499 -5.186,-3.47C-5.154,-3.44 -5.137,-3.245 -5.098,-3.202C-5.059,-3.161 -4.953,-3.186 -4.921,-3.253C-4.889,-3.317 -4.877,-3.386 -4.877,-3.386C-4.877,-3.386 -4.546,-3.286 -4.447,-3.204C-4.447,-3.204 -4.471,-3.126 -4.511,-3.061C-4.549,-2.995 -4.607,-2.973 -4.611,-2.891C-4.614,-2.809 -4.579,-2.802 -4.6,-2.69C-4.619,-2.579 -4.594,-2.495 -4.505,-2.431C-4.505,-2.431 -4.552,-2.161 -4.575,-1.921C-4.6,-1.681 -4.541,-1.173 -4.475,-0.864C-4.475,-0.864 -4.536,-0.862 -4.52,-0.735C-4.504,-0.608 -4.398,0.38 -4.398,0.38C-4.398,0.38 -4.523,0.519 -4.539,0.71C-4.543,0.732 -4.71,0.806 -4.73,0.958C-4.753,1.109 -4.671,1.329 -4.543,1.374L-4.477,1.569L-3.784,1.583L-4.203,3.675L-4.174,3.794L-4.056,3.927L-3.965,3.943L-3.85,3.954C-3.85,3.954 -3.938,4.401 -4.035,4.915C-4.201,4.974 -4.39,5.079 -4.499,5.107C-4.613,5.134 -4.842,4.991 -4.926,4.907C-5.012,4.821 -5.184,4.964 -5.326,5.021C-5.401,5.05 -5.469,5.089 -5.532,5.114C-5.541,5.097 -5.55,5.081 -5.561,5.06C-5.661,4.882 -5.594,4.96 -5.605,4.86C-5.617,4.759 -5.729,4.704 -5.729,4.704C-5.729,4.704 -6.008,4.593 -6.119,4.603C-6.16,4.607 -6.236,4.587 -6.314,4.558C-6.338,4.368 -6.359,4.181 -6.359,4.148C-6.359,4.075 -6.584,3.913 -6.639,3.642C-6.693,3.37 -6.838,3.171 -6.946,3.171C-7.055,3.171 -7.381,3.089 -7.436,2.943C-7.49,2.798 -7.689,2.753 -7.762,2.753C-7.786,2.753 -7.847,2.737 -7.919,2.714C-7.918,2.605 -7.918,2.523 -7.918,2.523C-7.918,2.523 -7.796,2.564 -7.763,2.595C-7.729,2.624 -7.243,2.896 -7.055,2.925C-6.867,2.956 -6.746,2.896 -6.746,2.896L-6.59,2.716C-6.59,2.716 -7.01,2.655 -7.088,2.655C-7.165,2.655 -7.475,2.544 -7.597,2.484C-7.719,2.423 -7.84,2.372 -7.861,2.343C-7.884,2.314 -7.718,2.193 -7.718,2.193C-7.718,2.193 -7.309,2.403 -7.221,2.454C-7.132,2.505 -6.811,2.505 -6.711,2.485C-6.611,2.466 -6.611,2.415 -6.445,2.306C-6.279,2.194 -6.323,2.095 -6.323,2.095L-6.5,2.044C-6.5,2.044 -6.788,2.144 -6.832,2.153C-6.877,2.163 -7.131,2.124 -7.242,2.073C-7.352,2.023 -7.551,1.853 -7.551,1.853C-7.551,1.853 -7.562,1.661 -7.596,1.632C-7.629,1.601 -7.396,1.642 -7.352,1.661C-7.308,1.681 -7.064,1.792 -7.01,1.802C-6.953,1.812 -6.699,1.782 -6.61,1.724C-6.521,1.663 -6.443,1.462 -6.443,1.462C-6.443,1.462 -6.609,1.433 -6.654,1.433C-6.699,1.433 -6.842,1.421 -6.964,1.421C-7.086,1.421 -7.186,1.351 -7.285,1.331C-7.385,1.31 -7.362,1.261 -7.362,1.261L-7.174,1.191C-7.174,1.191 -7.219,0.999 -7.307,0.989C-7.395,0.98 -7.316,0.819 -7.316,0.819C-7.316,0.819 -7.461,0.769 -7.494,0.749C-7.527,0.73 -7.461,0.669 -7.461,0.669L-7.162,0.679C-7.162,0.679 -7.019,0.79 -6.941,0.829C-6.863,0.87 -6.543,0.921 -6.498,0.921C-6.455,0.921 -6.454,0.86 -6.487,0.821C-6.52,0.78 -6.332,0.671 -6.332,0.671C-6.332,0.671 -6.83,0.519 -6.885,0.489C-6.94,0.458 -7.25,0.368 -7.294,0.339C-7.339,0.308 -7.473,0.288 -7.526,0.267C-7.582,0.247 -7.703,0.066 -7.703,0.066L-7.604,0.027L-7.339,0.196L-7.305,0.027C-7.305,0.027 -7.139,0.247 -7.062,0.237C-6.984,0.228 -6.664,0.179 -6.486,0.089C-6.309,-0.001 -6.253,-0.212 -6.187,-0.212C-6.121,-0.212 -6.75,-0.294 -6.817,-0.294C-6.884,-0.294 -7.193,-0.313 -7.326,-0.364C-7.459,-0.415 -7.514,-0.524 -7.592,-0.524C-7.67,-0.526 -7.171,-0.554 -7.083,-0.524C-6.994,-0.495 -6.718,-0.583 -6.606,-0.614C-6.496,-0.643 -6.418,-0.895 -6.352,-0.954C-6.285,-1.015 -6.572,-1.005 -6.639,-0.975C-6.705,-0.946 -6.982,-0.985 -7.049,-0.946C-7.115,-0.905 -7.37,-0.946 -7.459,-0.936C-7.547,-0.927 -7.691,-0.968 -7.724,-0.987C-7.758,-1.007 -7.724,-1.097 -7.69,-1.097C-7.657,-1.097 -7.48,-1.087 -7.402,-1.126C-7.325,-1.167 -7.137,-1.126 -7.059,-1.116C-6.982,-1.106 -6.717,-1.095 -6.628,-1.136C-6.539,-1.177 -6.517,-1.347 -6.483,-1.415C-6.451,-1.487 -6.76,-1.427 -6.826,-1.436C-6.893,-1.446 -7.258,-1.528 -7.369,-1.528C-7.48,-1.528 -7.756,-1.638 -7.789,-1.659C-7.822,-1.679 -7.733,-1.729 -7.733,-1.729C-7.733,-1.729 -7.469,-1.708 -7.346,-1.688C-7.225,-1.669 -6.914,-1.768 -6.859,-1.757C-6.805,-1.747 -6.583,-1.837 -6.494,-1.888C-6.405,-1.938 -6.549,-1.968 -6.615,-1.958C-6.682,-1.948 -7.125,-1.948 -7.158,-1.989C-7.19,-2.03 -7.468,-2.05 -7.468,-2.05C-7.468,-2.05 -7.423,-2.181 -7.468,-2.19C-7.512,-2.2 -7.521,-2.36 -7.521,-2.36C-7.521,-2.36 -7.312,-2.319 -7.213,-2.3C-7.113,-2.28 -6.881,-2.45 -6.814,-2.44C-6.747,-2.429 -6.969,-2.54 -7.024,-2.55C-7.08,-2.561 -7.312,-2.6 -7.411,-2.622C-7.511,-2.641 -7.621,-2.692 -7.677,-2.712C-7.731,-2.731 -7.6,-2.843 -7.588,-2.802C-7.577,-2.763 -7.356,-2.77 -7.3,-2.761C-7.245,-2.751 -6.836,-2.931 -6.77,-2.921C-6.703,-2.911 -6.791,-2.991 -6.836,-3.001C-6.879,-3.011 -7.111,-3.042 -7.199,-3.032C-7.289,-3.022 -7.532,-3.052 -7.609,-3.073C-7.674,-3.089 -7.692,-3.214 -7.696,-3.241C-7.683,-3.218 -7.455,-3.282 -7.455,-3.282C-7.455,-3.282 -7.199,-3.202 -7.156,-3.202C-7.111,-3.202 -6.824,-3.161 -6.703,-3.161C-6.58,-3.161 -6.47,-3.302 -6.437,-3.362C-6.402,-3.423 -6.402,-3.522 -6.402,-3.522C-6.402,-3.522 -7.023,-3.554 -7.055,-3.554C-7.089,-3.554 -7.321,-3.624 -7.321,-3.655C-7.321,-3.684 -7.509,-3.745 -7.553,-3.735C-7.598,-3.725 -7.387,-3.804 -7.387,-3.804C-7.387,-3.804 -7.121,-3.755 -7.045,-3.774C-6.967,-3.794 -7.133,-3.835 -7.166,-3.845C-7.199,-3.854 -7.408,-3.925 -7.465,-3.934C-7.52,-3.946 -7.741,-3.956 -7.808,-4.007C-7.873,-4.056 -7.74,-4.136 -7.74,-4.136C-7.74,-4.136 -7.465,-4.065 -7.432,-4.106C-7.397,-4.145 -6.934,-4.056 -6.9,-4.095C-6.866,-4.136 -6.711,-4.345 -6.578,-4.386C-6.445,-4.425 -6.611,-4.466 -6.611,-4.466C-6.611,-4.466 -6.777,-4.516 -6.832,-4.507C-6.888,-4.495 -7.088,-4.456 -7.164,-4.446C-7.242,-4.436 -7.441,-4.466 -7.52,-4.468C-7.597,-4.468 -7.563,-4.587 -7.563,-4.587L-7.408,-4.597C-7.408,-4.597 -7.187,-4.638 -7.064,-4.647C-6.943,-4.657 -6.711,-4.786 -6.645,-4.827C-6.578,-4.866 -6.699,-4.927 -6.699,-4.927C-6.699,-4.927 -6.965,-4.997 -7.01,-4.968C-7.053,-4.936 -7.309,-4.907 -7.396,-4.917C-7.485,-4.929 -7.662,-5.028 -7.662,-5.028C-7.662,-5.028 -7.363,-5.048 -7.319,-5.079C-7.275,-5.108 -7.108,-5.128 -6.986,-5.208C-6.865,-5.288 -6.831,-5.407 -6.876,-5.419C-6.92,-5.429 -7.098,-5.429 -7.152,-5.429C-7.208,-5.429 -7.418,-5.431 -7.484,-5.47C-7.551,-5.511 -7.418,-5.53 -7.418,-5.53C-7.418,-5.53 -7.141,-5.559 -7.086,-5.569C-7.031,-5.579 -6.854,-5.659 -6.798,-5.708C-6.742,-5.759 -6.72,-5.841 -6.82,-5.85C-6.919,-5.86 -6.963,-5.85 -6.996,-5.921C-7.029,-5.991 -7.041,-6.081 -7.041,-6.081C-7.041,-6.081 -7.229,-5.991 -7.295,-5.94C-7.361,-5.891 -7.461,-5.821 -7.595,-5.811C-7.727,-5.802 -7.805,-5.942 -7.805,-5.942C-7.805,-5.942 -7.615,-6.013 -7.572,-6.042C-7.527,-6.071 -7.361,-6.061 -7.339,-6.171C-7.316,-6.282 -7.416,-6.423 -7.461,-6.413C-7.504,-6.401 -7.561,-6.442 -7.604,-6.452C-7.648,-6.464 -7.637,-6.682 -7.648,-6.784C-7.659,-6.884 -7.803,-6.905 -7.825,-6.985C-7.847,-7.065 -7.937,-6.794 -7.937,-6.794C-7.937,-6.794 -7.926,-6.483 -7.914,-6.454C-7.903,-6.423 -8.014,-6.384 -8.014,-6.384C-8.014,-6.384 -8.08,-6.224 -8.059,-6.192C-8.037,-6.163 -8.213,-6.163 -8.213,-6.163C-8.213,-6.163 -8.391,-6.224 -8.445,-6.272C-8.5,-6.323 -8.533,-6.313 -8.457,-6.173C-8.38,-6.034 -8.457,-6.013 -8.523,-6.003C-8.59,-5.993 -8.822,-6.003 -8.889,-5.974C-8.955,-5.944 -8.944,-5.874 -8.9,-5.852C-8.855,-5.833 -8.624,-5.743 -8.523,-5.731C-8.424,-5.722 -8.259,-5.641 -8.336,-5.6C-8.413,-5.561 -8.624,-5.571 -8.701,-5.571C-8.779,-5.571 -8.801,-5.491 -8.801,-5.491C-8.801,-5.491 -8.69,-5.432 -8.635,-5.432C-8.579,-5.432 -8.469,-5.401 -8.381,-5.36C-8.291,-5.321 -8.027,-5.38 -8.104,-5.331C-8.182,-5.28 -8.236,-5.2 -8.326,-5.181C-8.414,-5.159 -8.471,-5.02 -8.547,-5.011C-8.625,-5.001 -8.438,-4.931 -8.393,-4.94C-8.348,-4.95 -8.171,-5.009 -8.115,-4.979C-8.061,-4.948 -7.973,-4.868 -8.061,-4.858C-8.149,-4.849 -8.349,-4.739 -8.404,-4.729C-8.459,-4.72 -8.548,-4.72 -8.703,-4.71C-8.857,-4.7 -8.869,-4.64 -8.836,-4.608C-8.803,-4.579 -8.615,-4.509 -8.56,-4.477C-8.504,-4.448 -8.57,-4.409 -8.604,-4.388C-8.637,-4.368 -8.791,-4.348 -8.902,-4.348C-9.014,-4.348 -9.18,-4.278 -9.234,-4.268C-9.29,-4.259 -9.146,-4.118 -9.146,-4.118C-9.146,-4.118 -8.858,-4.108 -8.759,-4.098C-8.66,-4.087 -8.438,-4.157 -8.305,-4.128C-8.173,-4.097 -8.339,-3.997 -8.339,-3.997C-8.339,-3.997 -8.561,-3.897 -8.627,-3.878C-8.693,-3.856 -8.87,-3.807 -8.959,-3.807C-9.047,-3.807 -8.893,-3.686 -8.893,-3.686C-8.893,-3.686 -8.693,-3.647 -8.616,-3.616C-8.556,-3.593 -8.443,-3.534 -8.371,-3.509C-8.325,-3.501 -8.298,-3.495 -8.317,-3.495C-8.33,-3.495 -8.349,-3.501 -8.371,-3.509C-8.459,-3.522 -8.617,-3.54 -8.66,-3.526C-8.728,-3.505 -8.893,-3.485 -9.004,-3.475C-9.113,-3.466 -9.125,-3.417 -9.258,-3.407C-9.391,-3.397 -9.281,-3.276 -9.281,-3.276C-9.281,-3.276 -9.126,-3.206 -9.048,-3.196C-8.971,-3.184 -8.738,-3.165 -8.65,-3.155C-8.562,-3.143 -8.352,-3.134 -8.273,-3.124C-8.195,-3.114 -8.34,-3.034 -8.34,-3.034C-8.34,-3.034 -8.551,-2.993 -8.661,-3.024C-8.771,-3.054 -8.916,-2.985 -8.971,-2.975C-9.026,-2.966 -8.883,-2.854 -8.85,-2.835C-8.816,-2.813 -8.617,-2.714 -8.508,-2.714C-8.396,-2.712 -8.518,-2.614 -8.573,-2.583C-8.629,-2.554 -8.795,-2.483 -8.839,-2.474C-8.883,-2.464 -8.762,-2.362 -8.762,-2.362C-8.762,-2.362 -8.685,-2.352 -8.585,-2.343C-8.485,-2.331 -8.252,-2.311 -8.197,-2.302C-8.143,-2.292 -8.219,-2.231 -8.309,-2.231C-8.396,-2.231 -8.485,-2.202 -8.596,-2.231C-8.707,-2.263 -8.939,-2.253 -9.017,-2.243C-9.094,-2.233 -9.249,-2.222 -9.393,-2.202C-9.422,-2.198 -9.439,-2.19 -9.451,-2.181C-9.49,-2.198 -9.53,-2.218 -9.551,-2.231C-9.592,-2.255 -9.684,-2.337 -9.601,-2.337C-9.518,-2.337 -9.369,-2.419 -9.345,-2.434C-9.32,-2.452 -9.213,-2.542 -9.254,-2.55C-9.295,-2.559 -9.402,-2.616 -9.484,-2.593C-9.567,-2.567 -9.725,-2.6 -9.725,-2.6C-9.725,-2.6 -9.832,-2.665 -9.773,-2.673C-9.717,-2.682 -9.559,-2.69 -9.493,-2.698C-9.427,-2.706 -9.254,-2.723 -9.195,-2.731C-9.139,-2.739 -9.023,-2.798 -9.023,-2.798C-9.023,-2.798 -8.94,-2.895 -9.039,-2.903C-9.139,-2.913 -9.146,-2.954 -9.229,-2.962C-9.311,-2.97 -9.436,-2.987 -9.484,-3.003C-9.518,-3.013 -9.635,-2.999 -9.701,-2.989C-9.646,-3.009 -9.563,-3.057 -9.518,-3.077C-9.46,-3.102 -9.311,-3.134 -9.311,-3.134C-9.311,-3.134 -9.195,-3.233 -9.262,-3.233C-9.328,-3.233 -9.46,-3.274 -9.51,-3.29C-9.559,-3.306 -9.725,-3.39 -9.725,-3.39C-9.725,-3.39 -9.848,-3.472 -9.75,-3.495C-9.649,-3.52 -9.484,-3.462 -9.411,-3.472C-9.336,-3.479 -9.121,-3.487 -9.121,-3.487C-9.121,-3.487 -9.014,-3.602 -9.056,-3.61C-9.098,-3.618 -9.221,-3.677 -9.303,-3.677C-9.386,-3.677 -9.502,-3.692 -9.527,-3.708C-9.551,-3.725 -9.601,-3.759 -9.559,-3.782C-9.518,-3.807 -9.377,-3.864 -9.354,-3.89C-9.328,-3.915 -9.336,-3.964 -9.451,-3.972C-9.567,-3.979 -9.635,-3.979 -9.674,-3.989C-9.717,-3.997 -9.865,-4.087 -9.931,-4.095C-9.996,-4.102 -9.931,-4.169 -9.889,-4.194C-9.848,-4.218 -9.717,-4.169 -9.684,-4.161C-9.649,-4.153 -9.51,-4.21 -9.567,-4.218C-9.625,-4.227 -9.666,-4.343 -9.732,-4.358C-9.799,-4.374 -9.84,-4.44 -9.897,-4.481C-9.955,-4.522 -9.758,-4.472 -9.691,-4.507C-9.625,-4.538 -9.543,-4.563 -9.502,-4.563C-9.46,-4.563 -9.377,-4.612 -9.377,-4.612C-9.377,-4.612 -9.395,-4.679 -9.451,-4.679C-9.51,-4.679 -9.666,-4.671 -9.725,-4.702C-9.781,-4.735 -9.658,-4.802 -9.584,-4.809C-9.51,-4.817 -9.336,-4.891 -9.303,-4.909C-9.27,-4.925 -9.262,-4.981 -9.311,-5.007C-9.361,-5.03 -9.533,-5.024 -9.584,-5.03C-9.635,-5.04 -9.691,-5.056 -9.635,-5.171C-9.575,-5.286 -9.601,-5.294 -9.643,-5.253C-9.684,-5.212 -9.814,-5.163 -9.814,-5.163C-9.814,-5.163 -9.947,-5.163 -9.931,-5.188C-9.914,-5.212 -9.964,-5.345 -9.964,-5.345C-9.964,-5.345 -10.047,-5.376 -10.038,-5.401C-10.029,-5.425 -10.021,-5.681 -10.021,-5.681C-10.021,-5.681 -10.088,-5.903 -10.104,-5.837C-10.12,-5.77 -10.228,-5.755 -10.236,-5.673C-10.244,-5.589 -10.236,-5.409 -10.27,-5.401C-10.303,-5.393 -10.343,-5.36 -10.377,-5.368C-10.41,-5.376 -10.484,-5.261 -10.467,-5.171C-10.451,-5.081 -10.326,-5.089 -10.295,-5.063C-10.262,-5.04 -10.12,-4.981 -10.12,-4.981C-10.12,-4.981 -10.179,-4.868 -10.277,-4.876C-10.377,-4.884 -10.451,-4.942 -10.5,-4.981C-10.55,-5.024 -10.689,-5.099 -10.689,-5.099C-10.689,-5.099 -10.698,-5.024 -10.723,-4.966C-10.748,-4.909 -10.781,-4.917 -10.855,-4.909C-10.93,-4.899 -10.913,-4.835 -10.872,-4.794C-10.83,-4.753 -10.698,-4.686 -10.658,-4.679C-10.615,-4.671 -10.41,-4.645 -10.41,-4.645C-10.41,-4.645 -10.311,-4.63 -10.359,-4.597C-10.41,-4.563 -10.566,-4.563 -10.607,-4.563C-10.648,-4.563 -10.781,-4.563 -10.814,-4.556C-10.848,-4.548 -10.822,-4.448 -10.731,-4.382C-10.641,-4.317 -10.517,-4.3 -10.484,-4.276C-10.451,-4.251 -10.228,-4.235 -10.228,-4.235C-10.228,-4.235 -10.359,-4.153 -10.426,-4.143C-10.492,-4.136 -10.682,-4.161 -10.715,-4.184C-10.748,-4.21 -10.945,-4.153 -10.945,-4.153C-10.945,-4.153 -11.037,-4.102 -10.987,-4.071C-10.938,-4.038 -10.765,-3.931 -10.674,-3.923C-10.583,-3.915 -10.418,-3.882 -10.418,-3.882L-10.303,-3.874C-10.303,-3.874 -10.277,-3.776 -10.336,-3.776C-10.393,-3.776 -10.542,-3.751 -10.6,-3.759C-10.658,-3.766 -10.806,-3.8 -10.848,-3.807C-10.889,-3.815 -11.012,-3.776 -11.012,-3.776C-11.012,-3.776 -11.135,-3.741 -11.037,-3.708C-10.938,-3.677 -10.822,-3.503 -10.797,-3.472C-10.773,-3.438 -10.426,-3.513 -10.401,-3.479C-10.377,-3.446 -10.17,-3.503 -10.17,-3.503C-10.17,-3.503 -10.07,-3.438 -10.12,-3.397C-10.17,-3.356 -10.336,-3.347 -10.377,-3.339C-10.418,-3.331 -10.574,-3.274 -10.6,-3.265C-10.624,-3.257 -10.748,-3.223 -10.689,-3.208C-10.633,-3.192 -10.435,-3.233 -10.435,-3.233C-10.435,-3.233 -10.277,-3.167 -10.311,-3.175C-10.343,-3.182 -10.484,-3.134 -10.484,-3.108C-10.484,-3.085 -10.658,-3.028 -10.682,-3.028C-10.701,-3.028 -10.99,-3.013 -11.113,-3.005C-11.143,-3.436 -11.201,-4.321 -11.201,-4.321L-11.2,-10.222C-11.172,-10.473 -10.969,-10.668 -10.713,-10.676L5.779,-10.676C6.039,-10.668 6.244,-10.468 6.269,-10.212L6.269,-4.321C6.269,-4.321 6.275,-3.124 5.998,-1.571M5.891,-1.026L5.55,-1.073L5.814,-1.179L5.55,-1.325L5.96,-1.366C5.939,-1.255 5.916,-1.141 5.891,-1.026M5.812,-0.673L5.74,-0.761L5.85,-0.839C5.838,-0.784 5.825,-0.727 5.812,-0.673M-3.156,0.235L-2.953,-0.718C-2.953,-0.718 -2.914,-0.891 -2.729,-0.931L-2.969,0.165C-2.969,0.165 -3.084,0.165 -3.156,0.235M-4.525,-3.567C-4.525,-3.567 -4.562,-3.458 -4.559,-3.45C-4.556,-3.442 -4.834,-3.546 -4.834,-3.546L-4.842,-3.667L-4.525,-3.567ZM-4.651,-3.903C-4.651,-3.903 -4.703,-3.991 -4.71,-4.098C-4.717,-4.206 -4.743,-4.202 -4.748,-4.29C-4.752,-4.378 -4.75,-4.473 -4.75,-4.473L-4.748,-4.485C-4.748,-4.485 -4.672,-4.52 -4.619,-4.524C-4.564,-4.528 -4.49,-4.53 -4.458,-4.554C-4.426,-4.577 -4.336,-4.583 -4.29,-4.62C-4.243,-4.659 -4.1,-4.667 -4.072,-4.677C-4.045,-4.686 -3.881,-4.743 -3.828,-4.747C-3.773,-4.751 -3.726,-4.679 -3.656,-4.718C-3.587,-4.755 -3.551,-4.727 -3.551,-4.727C-3.551,-4.727 -3.559,-4.653 -3.584,-4.624C-3.609,-4.595 -3.627,-4.528 -3.654,-4.495C-3.682,-4.464 -3.717,-4.411 -3.723,-4.372C-3.727,-4.333 -3.762,-4.265 -3.783,-4.225C-3.836,-4.157 -3.779,-4.075 -3.816,-3.995C-3.854,-3.917 -3.914,-3.915 -3.949,-3.87C-3.984,-3.825 -4.044,-3.71 -4.044,-3.71L-4.21,-3.735L-4.27,-3.782L-4.651,-3.903ZM-3.291,-1.038L-3.31,-0.817L-3.555,0.556C-3.555,0.556 -3.648,0.357 -3.709,0.304C-3.77,0.249 -3.786,0.124 -3.797,0.036C-3.809,-0.05 -3.794,-0.472 -3.758,-0.673C-3.758,-0.673 -3.705,-0.782 -3.756,-0.809C-3.756,-0.809 -3.697,-1.04 -3.662,-1.192C-3.627,-1.347 -3.632,-1.643 -3.639,-1.813C-3.647,-1.981 -3.639,-2.184 -3.639,-2.184C-3.639,-2.184 -3.582,-2.104 -3.502,-2.122C-3.424,-2.138 -3.379,-2.165 -3.309,-2.194C-3.238,-2.222 -3.144,-2.175 -3.074,-2.21C-3.003,-2.245 -2.899,-2.231 -2.819,-2.235C-2.738,-2.239 -2.429,-2.251 -2.429,-2.251L-2.633,-1.35L-2.66,-1.253L-2.889,-1.19C-2.889,-1.19 -3.104,-1.278 -3.224,-1.263L-3.291,-1.038ZM-8.553,-1.438C-8.599,-1.454 -8.686,-1.468 -8.783,-1.472C-8.799,-1.481 -8.813,-1.513 -8.834,-1.542C-8.816,-1.542 -8.799,-1.542 -8.785,-1.54C-8.697,-1.53 -8.541,-1.6 -8.441,-1.581C-8.342,-1.559 -8.166,-1.489 -8.198,-1.47C-8.232,-1.448 -8.486,-1.419 -8.553,-1.438M-9.832,-2.001C-9.791,-2.009 -9.617,-2.024 -9.543,-2.034C-9.469,-2.042 -9.411,-2.05 -9.411,-2.05C-9.411,-2.05 -9.407,-2.054 -9.402,-2.057L-9.128,-1.962C-9.128,-1.962 -8.973,-1.932 -8.852,-1.921C-8.783,-1.915 -8.822,-1.893 -8.888,-1.874C-8.888,-1.895 -8.9,-1.913 -8.94,-1.919C-9.047,-1.934 -9.163,-1.942 -9.221,-1.952C-9.279,-1.96 -9.451,-1.968 -9.533,-1.942C-9.617,-1.919 -9.684,-1.942 -9.75,-1.942C-9.814,-1.942 -9.873,-1.991 -9.832,-2.001M-9.649,-1.409C-9.575,-1.425 -9.46,-1.368 -9.395,-1.376C-9.366,-1.38 -9.328,-1.378 -9.289,-1.378C-9.301,-1.374 -9.311,-1.372 -9.316,-1.37C-9.336,-1.366 -9.324,-1.343 -9.305,-1.319C-9.409,-1.325 -9.52,-1.309 -9.567,-1.294C-9.617,-1.278 -9.807,-1.302 -9.832,-1.319C-9.857,-1.335 -9.725,-1.393 -9.649,-1.409M-8.422,-0.686C-8.455,-0.677 -8.732,-0.638 -8.798,-0.628C-8.855,-0.618 -9.008,-0.587 -9.105,-0.565C-9.113,-0.567 -9.122,-0.569 -9.13,-0.571C-9.195,-0.587 -9.336,-0.62 -9.386,-0.628C-9.436,-0.638 -9.643,-0.671 -9.666,-0.679C-9.691,-0.686 -9.873,-0.792 -9.832,-0.802C-9.791,-0.809 -9.601,-0.776 -9.559,-0.761C-9.518,-0.743 -9.32,-0.776 -9.279,-0.784C-9.237,-0.794 -9.098,-0.858 -9.121,-0.874C-9.146,-0.891 -9.254,-0.932 -9.336,-0.94C-9.419,-0.95 -9.551,-1.007 -9.658,-1.022C-9.766,-1.04 -9.649,-1.071 -9.527,-1.079C-9.402,-1.089 -9.27,-1.089 -9.246,-1.097C-9.221,-1.104 -9.056,-1.138 -9.056,-1.138C-9.056,-1.138 -9.019,-1.175 -9,-1.204C-8.994,-1.202 -8.988,-1.2 -8.984,-1.2C-8.951,-1.19 -8.775,-1.188 -8.609,-1.179C-8.443,-1.169 -8.288,-1.128 -8.432,-1.108C-8.576,-1.089 -8.752,-1.018 -8.863,-1.009C-8.975,-0.999 -9.118,-0.95 -9.151,-0.929C-9.186,-0.909 -8.996,-0.829 -8.941,-0.817C-8.886,-0.807 -8.621,-0.768 -8.565,-0.788C-8.51,-0.807 -8.256,-0.847 -8.199,-0.837C-8.145,-0.827 -8.389,-0.698 -8.422,-0.686M-8.237,1.892C-8.314,1.911 -8.459,2.181 -8.525,2.181C-8.592,2.181 -8.714,2.331 -8.824,2.351C-8.843,2.355 -8.866,2.362 -8.893,2.374C-9.004,2.333 -9.101,2.29 -9.101,2.29C-9.101,2.29 -9.219,2.163 -9.336,2.06C-9.318,2.058 -9.288,2.052 -9.251,2.042C-9.161,2.068 -9.08,2.114 -9.08,2.114C-9.08,2.114 -8.94,2.025 -8.989,2.017C-9.002,2.015 -9.029,1.999 -9.063,1.98C-9,1.956 -8.937,1.929 -8.891,1.9C-8.758,1.819 -8.646,1.821 -8.525,1.8C-8.402,1.78 -8.16,1.872 -8.237,1.892M-8.49,0.888C-8.557,0.898 -8.568,0.987 -8.59,1.058C-8.607,1.109 -8.641,1.226 -8.676,1.312C-8.723,1.298 -8.788,1.29 -8.857,1.318C-8.957,1.359 -9.172,1.286 -9.229,1.31C-9.287,1.335 -9.419,1.081 -9.451,1.023C-9.484,0.966 -9.527,0.81 -9.543,0.751C-9.546,0.741 -9.549,0.73 -9.551,0.718L-9.464,0.765L-9.077,0.857C-9.077,0.857 -8.789,0.878 -8.744,0.827C-8.701,0.777 -8.545,0.737 -8.49,0.728C-8.435,0.718 -8.424,0.878 -8.49,0.888M-8.877,0.155C-8.843,0.155 -8.611,0.175 -8.578,0.185C-8.544,0.194 -8.323,0.245 -8.323,0.245C-8.323,0.245 -8.578,0.427 -8.623,0.415C-8.638,0.413 -8.68,0.413 -8.73,0.417L-8.684,0.39C-8.684,0.39 -8.692,0.275 -8.783,0.3C-8.873,0.323 -8.94,0.316 -9.023,0.316C-9.105,0.316 -9.172,0.259 -9.229,0.251C-9.287,0.241 -9.484,0.218 -9.518,0.226C-9.551,0.234 -9.74,0.087 -9.74,0.087C-9.74,0.087 -9.575,0.044 -9.551,0.036C-9.527,0.028 -9.354,0.013 -9.328,0.013C-9.303,0.013 -9.229,-0.095 -9.32,-0.085C-9.411,-0.077 -9.436,-0.192 -9.502,-0.21C-9.567,-0.225 -9.684,-0.266 -9.717,-0.292C-9.75,-0.317 -9.824,-0.407 -9.758,-0.407C-9.694,-0.407 -9.595,-0.386 -9.508,-0.384L-9.407,-0.288C-9.407,-0.288 -9.141,-0.206 -9.053,-0.247C-8.965,-0.286 -8.775,-0.327 -8.654,-0.325C-8.532,-0.325 -8.389,-0.356 -8.3,-0.356C-8.212,-0.356 -8.311,-0.245 -8.355,-0.216C-8.4,-0.186 -8.555,-0.136 -8.643,-0.116C-8.732,-0.097 -8.766,0.044 -8.887,0.034C-9.009,0.025 -8.91,0.155 -8.877,0.155M-9.463,1.761C-9.514,1.72 -9.562,1.671 -9.592,1.671C-9.643,1.671 -9.75,1.45 -9.807,1.433C-9.865,1.417 -9.684,1.343 -9.592,1.359C-9.501,1.376 -9.419,1.376 -9.32,1.441C-9.221,1.507 -9.023,1.573 -8.981,1.573C-8.955,1.573 -8.852,1.53 -8.779,1.497C-8.853,1.612 -8.957,1.761 -9.012,1.739C-9.081,1.712 -9.318,1.78 -9.463,1.761M-10.451,-1.368C-10.529,-1.368 -10.778,-1.307 -10.846,-1.296C-10.865,-1.391 -10.885,-1.483 -10.9,-1.571C-10.87,-1.561 -10.844,-1.554 -10.83,-1.557C-10.789,-1.565 -10.559,-1.483 -10.467,-1.499C-10.377,-1.516 -10.178,-1.532 -10.178,-1.532C-10.178,-1.532 -10.111,-1.491 -10.137,-1.475C-10.162,-1.458 -10.368,-1.368 -10.451,-1.368M-10.188,-0.925C-10.212,-0.907 -10.318,-0.874 -10.385,-0.884C-10.451,-0.891 -10.641,-0.858 -10.689,-0.891C-10.703,-0.901 -10.729,-0.905 -10.76,-0.907C-10.77,-0.946 -10.777,-0.985 -10.787,-1.024C-10.742,-1.024 -10.703,-1.028 -10.682,-1.032C-10.624,-1.04 -10.484,-1.071 -10.426,-1.04C-10.368,-1.007 -10.236,-1.015 -10.212,-1.015C-10.188,-1.015 -10.162,-0.94 -10.188,-0.925M-10.336,0.103C-10.367,0.114 -10.436,0.128 -10.479,0.146C-10.498,0.081 -10.518,0.017 -10.535,-0.048C-10.515,-0.073 -10.5,-0.095 -10.5,-0.095L-10.475,0.044L-10.277,-0.095L-10.203,-0.061C-10.203,-0.061 -10.295,0.087 -10.336,0.103M-10.671,-0.546L-10.665,-0.546C-10.6,-0.571 -10.228,-0.546 -10.285,-0.546C-10.343,-0.546 -10.385,-0.456 -10.484,-0.415C-10.52,-0.399 -10.572,-0.388 -10.628,-0.38C-10.643,-0.436 -10.658,-0.491 -10.671,-0.546M-11.098,-2.774C-11.098,-2.772 -11.099,-2.784 -11.101,-2.806C-11.062,-2.757 -11.006,-2.706 -10.945,-2.706C-10.855,-2.706 -10.641,-2.739 -10.607,-2.739C-10.574,-2.739 -10.385,-2.806 -10.385,-2.806C-10.385,-2.806 -10.215,-2.751 -10.205,-2.77C-10.209,-2.747 -10.223,-2.647 -10.27,-2.634C-10.326,-2.616 -10.509,-2.593 -10.574,-2.6C-10.641,-2.608 -10.814,-2.583 -10.848,-2.575C-10.88,-2.567 -10.945,-2.501 -10.896,-2.509C-10.848,-2.518 -10.542,-2.37 -10.5,-2.378C-10.459,-2.388 -10.295,-2.378 -10.285,-2.411C-10.277,-2.444 -10.179,-2.354 -10.22,-2.337C-10.262,-2.321 -10.343,-2.28 -10.418,-2.263C-10.492,-2.247 -10.665,-2.214 -10.707,-2.206C-10.748,-2.198 -10.913,-2.106 -10.863,-2.116C-10.814,-2.124 -10.641,-1.983 -10.566,-2.001C-10.492,-2.016 -10.336,-2.05 -10.336,-2.05C-10.336,-2.05 -10.343,-1.919 -10.377,-1.909C-10.41,-1.901 -10.377,-1.796 -10.377,-1.796C-10.377,-1.796 -10.583,-1.778 -10.607,-1.745C-10.626,-1.722 -10.813,-1.716 -10.928,-1.718C-11.01,-2.155 -11.059,-2.515 -11.098,-2.774M7.482,-10.369C7.482,-11.226 6.783,-11.928 5.924,-11.928L-10.855,-11.928C-11.715,-11.928 -12.415,-11.226 -12.415,-10.367L-12.416,-4.325C-12.417,-4.059 -12.405,0.796 -10.015,3.939C-7.107,7.761 -4.103,8.98 -3.768,9.107C-3.479,9.222 -3.048,9.392 -2.467,9.392C-1.884,9.392 -1.452,9.222 -1.165,9.107C-0.83,8.98 2.175,7.761 5.083,3.939C7.473,0.796 7.486,-4.059 7.484,-4.325L7.482,-10.369Z" style="fill-rule:nonzero;"/>
        </g>
    </g>
</svg>
