<svg
  viewBox="0 0 512 512"
  xml:space="preserve"
  xmlns="http://www.w3.org/2000/svg"
  fill-rule="evenodd"
  clip-rule="evenodd"
  stroke-linejoin="round"
  stroke-miterlimit="2"
>
  <path
    d="M256 0c141.29 0 256 114.71 256 256 0 141.29-114.71 256-256 256C114.71 512 0 397.29 0 256 0 114.71 114.71 0 256 0Zm153.315 178.978c-3.68-13.769-14.522-24.61-28.29-28.29C356.067 144 256 144 256 144s-100.067 0-125.025 6.688c-13.765 3.68-24.61 14.521-28.29 28.29C96 203.933 96 256.002 96 256.002s0 52.067 6.685 77.02c3.68 13.769 14.525 24.614 28.29 28.293C155.933 368 256 368 256 368s100.067 0 125.025-6.685c13.768-3.679 24.61-14.524 28.29-28.293C416 308.069 416 256.002 416 256.002s0-52.069-6.685-77.024ZM223.999 304.003v-96.002l83.137 48.001-83.137 48.001Z"
    fill="#b4b4b4"
    class="fill-000000"
  ></path>
</svg>
